<svg xmlns="http://www.w3.org/2000/svg" viewBox="0 0 184 174"><rect x="4" y="4" width="176" height="166" rx="25" fill="#e0deef"/><ellipse cx="93.0" cy="159.5" rx="44.0" ry="4.5" fill="#c7c5ca" stroke="none" stroke-width="1"/><polyline points="76,128 74,146" fill="none" stroke="#2d354b" stroke-width="13" stroke-linecap="round" stroke-linejoin="round"/><polyline points="108,128 111,146" fill="none" stroke="#2d354b" stroke-width="13" stroke-linecap="round" stroke-linejoin="round"/><ellipse cx="72.0" cy="148.5" rx="14.0" ry="7.5" fill="#514b56" stroke="#2d354b" stroke-width="2"/><ellipse cx="112.0" cy="148.5" rx="14.0" ry="7.5" fill="#514b56" stroke="#2d354b" stroke-width="2"/><polygon points="63,75 115,77 146,143 118,134 88,150 59,137 30,145" fill="#474653" stroke="#2d303f" stroke-width="3" stroke-linejoin="round"/><polygon points="59,89 117,89 127,145 89,148 48,146" fill="#807b83" stroke="#4b4955" stroke-width="2" stroke-linejoin="round"/><polygon points="75,93 105,92 115,141 63,142" fill="#aba5a5" stroke="none" stroke-width="1" stroke-linejoin="round"/><polygon points="76,94 91,109 103,94" fill="#665b75" stroke="none" stroke-width="1" stroke-linejoin="round"/><polyline points="62,121 116,121" fill="none" stroke="#5c5662" stroke-width="4" stroke-linecap="round" stroke-linejoin="round"/><ellipse cx="92.5" cy="122.0" rx="7.5" ry="6.0" fill="#9ec8c6" stroke="#454454" stroke-width="2"/><polyline points="29,144 34,81 28,63 34,28" fill="none" stroke="#785841" stroke-width="5" stroke-linecap="round" stroke-linejoin="round"/><polyline points="31,69 24,53 34,38" fill="none" stroke="#b18a65" stroke-width="2" stroke-linecap="round" stroke-linejoin="round"/><polygon points="29,26 36,15 43,26 37,37" fill="#b9c9d2" stroke="#655b64" stroke-width="2" stroke-linejoin="round"/><ellipse cx="63.0" cy="103.5" rx="8.0" ry="14.5" fill="#9d98a0" stroke="#4b4855" stroke-width="2"/><ellipse cx="119.5" cy="104.0" rx="8.5" ry="15.0" fill="#9d98a0" stroke="#4b4855" stroke-width="2"/><ellipse cx="34.0" cy="98.5" rx="9.0" ry="9.5" fill="#c9aa9e" stroke="#4d4852" stroke-width="2"/><ellipse cx="129.0" cy="116.0" rx="9.0" ry="8.0" fill="#c9aa9e" stroke="#4d4852" stroke-width="2"/><ellipse cx="91.0" cy="71.0" rx="30.0" ry="26.0" fill="#d2b5aa" stroke="#554f57" stroke-width="2"/><polygon points="62,50 54,85 66,91 72,72 74,45" fill="#d7d3ce" stroke="#706a72" stroke-width="2" stroke-linejoin="round"/><polygon points="115,48 127,85 118,94 109,77 106,46" fill="#ded9d3" stroke="#706a72" stroke-width="2" stroke-linejoin="round"/><polygon points="76,82 89,89 104,82 109,106 96,126 81,109" fill="#e3ddd3" stroke="#6d6870" stroke-width="2" stroke-linejoin="round"/><polyline points="89,89 88,116" fill="none" stroke="#bbb5b5" stroke-width="2" stroke-linecap="round" stroke-linejoin="round"/><polyline points="100,91 97,115" fill="none" stroke="#bbb5b5" stroke-width="2" stroke-linecap="round" stroke-linejoin="round"/><polyline points="71,71 82,68" fill="none" stroke="#69636a" stroke-width="3" stroke-linecap="round" stroke-linejoin="round"/><polyline points="101,68 113,71" fill="none" stroke="#69636a" stroke-width="3" stroke-linecap="round" stroke-linejoin="round"/><ellipse cx="80.0" cy="75.5" rx="3.0" ry="3.5" fill="#4b4653" stroke="none" stroke-width="1"/><ellipse cx="106.0" cy="75.5" rx="3.0" ry="3.5" fill="#4b4653" stroke="none" stroke-width="1"/><ellipse cx="92.5" cy="80.5" rx="3.5" ry="2.5" fill="#b9948c" stroke="none" stroke-width="1"/><polygon points="57,51 73,24 78,12 101,38 120,50" fill="#777887" stroke="#454754" stroke-width="3" stroke-linejoin="round"/><polygon points="61,45 81,22 99,41 96,47" fill="#a6a4a7" stroke="none" stroke-width="1" stroke-linejoin="round"/><ellipse cx="89.5" cy="51.0" rx="42.5" ry="7.0" fill="#747581" stroke="#454754" stroke-width="2"/><polyline points="69,47 116,47" fill="none" stroke="#514d65" stroke-width="5" stroke-linecap="round" stroke-linejoin="round"/><polygon points="89,36 92,42 98,44 92,46 89,51 86,46 80,44 86,42" fill="#c6d7cd" stroke="none" stroke-width="1" stroke-linejoin="round"/></svg>